<?xml version="1.0" encoding="utf-8"?>
<svg version="1.1" id="Layer_1" xmlns="http://www.w3.org/2000/svg" x="0px" y="0px" width="100%" viewBox="0 0 1024 1024" enable-background="new 0 0 1024 1024">
  <g transform="matrix(1, 0, 0, 1, 115.15909, 0)">
    <path opacity="1.000000" stroke="none" d="M 262.663 815.284 C 270.626 817.644 278.132 819.947 287.216 820.846 C 274.822 814.257 262.954 809.397 250.87 805.095 C 238.202 800.585 228.747 791.779 220.405 781.901 C 211.968 771.913 213.084 751.477 225.779 740.474 C 234.074 733.285 243.365 727.94 253.285 723.592 C 277.262 713.086 302.437 706.898 328.29 703.242 C 336.099 702.139 343.853 700.625 351.811 700.948 C 358.936 701.236 363.965 706.955 363.094 714.055 C 362.59 718.167 360.005 719.832 356.045 720.33 C 338.679 722.514 321.295 724.597 304.175 728.386 C 288.518 731.849 273.312 736.66 258.767 743.448 C 253.159 746.065 247.788 749.079 243.412 753.608 C 237.045 760.198 236.305 766.799 241.344 774.497 C 246.125 781.802 253.133 786.603 260.444 791.009 C 277.535 801.313 296.649 806.02 315.685 810.935 C 347.799 819.227 380.522 823.005 413.558 821.205 C 456.127 818.887 497.532 810.623 536.211 791.687 C 543.526 788.105 550.25 783.614 555.163 776.845 C 561.55 768.047 560.879 759.398 552.833 752.097 C 545.884 745.794 537.633 741.48 528.967 738.151 C 506.925 729.681 484.07 724.611 460.542 722.56 C 456.713 722.227 452.874 721.86 449.085 721.229 C 443.704 720.333 441.893 717.262 442.374 710.41 C 442.775 704.684 445.131 701.923 450.564 702.203 C 472.937 703.356 494.842 707.421 516.377 713.513 C 533.521 718.365 550.139 724.561 564.89 734.756 C 574.942 741.704 582.127 751.039 583.124 763.642 C 584.324 778.813 576.574 789.163 563.981 796.664 C 552.702 803.382 540.84 808.906 528.981 814.614 C 537.963 814.415 546.263 811.526 554.51 808.459 C 572.143 801.902 588.867 793.638 603.609 781.777 C 611.834 775.161 617.275 766.518 620.182 756.509 C 624.104 742.997 617.497 733.065 607.988 724.575 C 592.424 710.683 573.954 702.173 554.203 696.167 C 530.373 688.919 505.918 684.878 481.231 682.035 C 474.545 681.265 467.85 680.543 461.186 679.608 C 455.513 678.812 452.883 675.403 454.186 669.879 C 457.789 654.604 456.764 649.474 475.347 651.27 C 519.063 655.493 562.228 662.739 601.108 684.559 C 611.789 690.554 620.453 692.078 630.699 685.832 C 633.912 683.873 637.875 683.213 640.754 680.527 C 640.096 677.677 637.617 677.008 635.824 675.762 C 618.25 663.556 599.022 654.845 578.618 648.982 C 576.897 648.488 575.169 648.014 573.432 647.559 C 560.908 644.284 553.272 637.115 550.318 624.547 C 549.044 619.131 547.296 613.795 545.36 608.572 C 539.514 592.803 560.827 575.182 569.366 595.85 C 570.532 598.674 571.424 601.7 571.871 604.717 C 573.306 614.419 579.543 619.488 588.298 622.03 C 590.099 622.552 591.888 623.098 593.668 623.664 L 262.663 815.284 Z M 593.668 623.664 C 617.418 631.224 639.287 642.656 659.653 657 C 685.535 675.227 703.22 699.301 709.972 730.653 C 711.295 736.8 711.779 743.128 712.724 749.903 C 721.927 724.504 728.296 698.891 731.97 672.548 C 735.206 649.34 735.723 626.015 733.966 602.781 C 730.833 561.382 720.803 521.581 703.594 483.662 C 673.162 416.605 626.249 364.361 562.992 326.75 C 560.012 324.978 556.86 323.499 553.814 321.836 C 546.151 317.652 543.289 309.929 546.533 302.268 C 549.895 294.329 556.882 291.122 565.587 294.248 C 578.05 298.724 588.829 306.408 599.601 313.817 C 653.443 350.855 695.328 398.502 724.781 456.883 C 742.878 492.751 754.46 530.682 760.667 570.411 C 764.763 596.629 766.185 622.948 764.866 649.311 C 762.353 699.503 749.747 747.27 728.086 792.647 C 707.171 836.457 679.697 875.493 644.234 908.809 C 594.188 955.825 535.43 985.856 468.192 999.42 C 443.547 1004.39 418.592 1006.79 393.509 1006.01 C 329.655 1004.02 269.257 988.711 213.911 956.211 C 155.402 921.854 111.409 873.311 77.97 814.677 C 56.183 776.474 41.299 735.826 33.707 692.538 C 28.525 662.994 27.3 633.111 29.153 603.286 C 32.677 546.578 48.401 493.181 75.135 442.999 C 99.453 397.352 132.052 358.682 172.874 327.053 C 202.953 303.748 235.761 285.199 271.921 272.921 C 278.958 270.532 279.134 270.718 281.941 277.865 C 287.214 291.288 283.467 300.504 270.582 305.926 C 178.368 344.731 115.42 411.467 80.789 505.104 C 70.334 533.375 63.834 562.559 60.767 592.597 C 58.564 614.159 57.914 635.692 59.949 657.216 C 63.314 692.817 71.763 727.262 85.463 762.173 C 85.551 749.353 85.461 738.154 88.494 727.237 C 95.499 702.011 110.124 681.965 129.691 664.998 C 158.509 640.007 192.811 626.051 228.699 615.339 C 256.214 607.124 284.355 601.855 312.931 598.948 C 320.007 598.229 327.06 597.27 334.145 596.671 C 343.213 595.904 347.42 599.219 349.117 608.075 C 350.64 616.02 346.797 623.625 339.345 625.408 C 332.088 627.147 324.57 627.849 317.139 628.786 C 299.197 631.048 281.356 633.91 263.612 637.375 C 262.347 637.623 261.157 638.246 259.296 638.927 C 263.748 644.913 267.902 650.615 272.193 656.212 C 274.15 658.766 276.731 657.398 279.135 656.921 C 301.962 652.393 325.061 649.83 349.076 646.864 C 349.13 656.348 349.38 665.278 344.665 673.403 C 342.586 676.986 338.747 678.083 334.817 678.679 C 310.861 682.31 286.749 685.076 263.25 691.287 C 240.246 697.368 217.691 704.525 198.454 719.318 C 195.857 721.315 193.337 723.418 190.824 725.524 C 173.086 740.383 172.492 756.244 187.618 774.782 C 193.65 782.174 201.814 787.223 209.959 792.053 C 226.45 801.83 243.99 809.28 262.663 815.284 L 593.668 623.664 Z M 500.715 907.284 C 470.515 912.577 440.155 916.195 409.428 916.091 C 396.287 916.047 395.928 916.096 394.051 929.002 C 392.531 939.451 391.531 950.031 391.193 960.581 C 390.89 970.052 395.689 974.142 405.07 974.296 C 416.847 974.489 428.512 973.377 440.209 972.133 C 467.969 969.185 494.632 962.141 520.581 951.982 C 526.043 949.845 529.019 946.166 528.965 940.821 C 528.862 930.63 528.372 920.402 527.282 910.273 C 526.513 903.138 525.083 902.659 518.146 904.013 C 512.672 905.081 507.168 905.999 500.715 907.284 Z M 464.252 886.262 C 470.157 885.51 476.069 884.814 481.965 883.998 C 509.985 880.118 537.718 874.824 564.767 866.429 C 596.365 856.623 625.806 842.729 650.608 820.23 C 655.907 815.423 655.635 812.448 649.196 809.825 C 643.313 807.429 637.265 805.425 631.432 802.914 C 626.599 800.833 622.726 801.667 618.705 804.987 C 606.879 814.752 593.594 822.161 579.493 828.093 C 540.425 844.531 499.36 852.259 457.362 855.712 C 453.064 856.065 451.201 857.28 451.132 861.86 C 451.053 867.115 452.303 872.183 452.442 877.382 C 452.682 886.372 454.347 887.679 464.252 886.262 Z M 281.348 953.531 C 293.477 957.979 306.048 960.959 318.365 964.745 C 329.238 968.088 338.586 967.794 346.769 959.137 C 348.065 957.766 349.937 956.953 351.488 955.808 C 372.294 940.441 368.066 946.227 368.259 923.103 C 368.304 917.644 366.09 915.193 360.453 914.726 C 347.806 913.676 335.187 912.212 322.592 910.643 C 305.226 908.479 287.984 905.519 270.791 902.239 C 264.618 901.061 262.637 902.886 262.509 909.17 C 262.326 918.236 262.21 927.305 262.132 936.373 C 262.061 944.392 263.777 946.857 271.293 949.791 C 274.346 950.983 277.412 952.142 281.348 953.531 Z M 347.937 886.828 C 360.592 887.781 373.235 889.041 385.909 889.594 C 396.492 890.056 407.117 889.916 417.713 889.608 C 424.227 889.418 426.09 887.048 426.133 880.523 C 426.169 875.135 425.737 869.792 425.222 864.416 C 424.701 858.984 422.536 857.809 417.481 857.948 C 376.994 859.063 336.666 857.35 296.772 849.774 C 292.896 849.039 290.538 849.98 288.408 852.94 C 284.919 857.786 281.46 862.664 277.732 867.324 C 272.744 873.559 272.817 874.133 280.396 875.917 C 302.308 881.076 324.469 884.695 347.937 886.828 Z M 224.328 829.07 C 209.472 823.003 194.263 816.781 182.591 805.901 C 172.626 796.614 164.498 798.28 154.206 803.574 C 141.815 809.95 141.594 810.612 152 819.971 C 176.374 841.892 206.431 853.006 236.199 864.679 C 239.785 866.085 244.306 866.703 247.314 864.051 C 253.919 858.228 258.052 850.453 263.217 842.756 C 249.774 838.113 237.175 834.56 224.328 829.07 Z M 645.357 781.922 C 650.606 784.335 655.772 786.941 661.361 788.537 C 669.671 790.91 671.49 790.241 675.664 782.607 C 683.885 767.578 684.949 751.387 682.515 734.897 C 680.803 723.298 676.077 712.759 668.825 703.446 C 666.551 700.528 663.867 698.284 659.939 699.936 C 652.004 703.275 644.154 706.817 635.842 710.462 C 637.537 713.079 638.815 715.19 640.225 717.21 C 650.222 731.539 653.052 747.054 647.823 763.829 C 646.565 767.865 644.888 771.776 643.304 775.703 C 642.371 778.014 641.665 780.153 645.357 781.922 Z M 148.586 862.928 C 151.359 865.872 154.161 868.79 156.902 871.762 C 177.281 893.853 200.646 912.291 226.033 928.243 C 231.586 931.732 234.411 930.574 236.148 924.313 C 237.984 917.695 236.924 911.023 236.844 904.313 C 236.735 895.164 231.52 891.319 224.046 888.803 C 222.954 888.436 221.889 887.982 220.812 887.566 C 191.535 876.258 164.326 861.276 139.626 841.839 C 138.613 841.042 137.663 839.871 135.822 840.699 C 134.22 844.098 135.066 847.236 137.467 850.074 C 140.949 854.191 144.507 858.243 148.586 862.928 Z M 148.425 756.895 C 146.432 742.549 151.77 729.705 157.428 716.319 C 148.866 712.917 140.242 712.048 132.023 709.741 C 128.616 708.785 126.459 709.832 124.84 712.721 C 111.884 735.84 110.666 759.388 122.188 783.432 C 123.457 786.08 125.515 787.409 128.245 786.563 C 137.166 783.798 146.012 780.795 155.355 777.729 C 152.739 770.636 150.065 764.461 148.425 756.895 Z M 585.875 916.827 C 608.997 901.41 628.348 881.75 647.569 861.949 C 649.398 860.066 651.342 858.078 649.51 855.206 C 647.367 855.181 646.219 856.33 645.002 857.197 C 635.867 863.712 626.023 868.982 616.01 873.986 C 599.061 882.455 581.284 888.71 563.167 894.107 C 554.8 896.599 554.233 897.394 554.164 906.284 C 554.109 913.227 554.165 920.174 554.348 927.114 C 554.404 929.28 553.298 932.108 555.969 933.383 C 558.707 934.69 561.141 933.191 563.464 931.642 C 570.683 926.826 577.951 922.086 585.875 916.827 Z M 199.652 655.85 C 181.226 663.593 163.739 672.819 148.176 687.709 C 157.826 690.822 166.167 693.581 174.56 696.172 C 176.787 696.859 178.602 695.425 180.369 694.2 C 195.203 683.917 211.421 676.504 228.463 670.696 C 234.395 668.674 240.657 667.441 246.28 664.402 C 245.642 660.175 243.078 657.493 240.698 654.79 C 233.677 646.817 227.534 645.271 217.72 648.908 C 211.947 651.047 206.217 653.298 199.652 655.85 Z" style=""/>
    <path opacity="1.000000" stroke="none" d="M 371.69 636.285 C 377.065 615.005 371.985 596.136 361.012 578.443 C 352.031 563.96 343.937 549.171 340.913 532.077 C 339.332 523.145 339.321 514.134 339.11 505.459 C 336.955 503.934 335.216 504.76 333.658 505.218 C 310.122 512.148 289.534 523.303 275.664 544.637 C 268.909 555.028 260.622 564.208 250.518 571.583 C 244.687 575.84 238.38 579.014 231.183 580.245 C 223.714 581.522 218.622 579.036 216.145 572.809 C 213.62 566.461 215.579 560.119 222.037 556.422 C 228.114 552.943 233.762 549.087 238.758 544.158 C 245.398 537.607 250.528 529.873 256.179 522.553 C 263.523 513.04 271.973 504.606 280.735 496.445 C 282.127 495.149 283.869 494.141 284.613 491.899 C 283.197 488.799 279.915 488.467 277.128 487.503 C 268.118 484.388 258.59 484.283 249.286 482.863 C 243.905 482.04 238.955 480.353 237.521 474.304 C 236.207 468.763 239.378 463.927 245.659 461.313 C 252.455 458.484 259.591 458.472 266.719 459.217 C 278.074 460.403 289.021 463.452 299.692 467.388 C 315.302 473.147 329.499 470.178 342.976 461.182 C 361.075 449.102 369.586 431.271 371.353 410.524 C 372.469 397.431 366.145 385.837 357.882 375.714 C 346.01 361.169 334.821 346.246 328.482 328.265 C 320.539 305.734 318.283 282.673 320.468 258.894 C 321.997 242.254 325.19 225.741 324.389 208.878 C 323.928 199.148 320.507 190.879 314.145 183.747 C 304.144 172.536 291.859 164.693 277.508 160.411 C 256.751 154.219 238.386 144.284 223.691 128.054 C 216.388 119.99 216.459 110.515 224.154 104.298 C 229.969 99.603 236.669 99.595 243.039 105.325 C 252.725 114.034 262.85 121.891 275.11 126.669 C 283.905 130.097 292.742 133.442 301.392 137.209 C 309.994 140.955 317.675 146.442 326.469 152.078 C 326.226 136.608 323.441 122.817 317.94 109.578 C 312.452 96.368 303.066 86.256 291.942 77.614 C 286.786 73.607 282.941 68.807 284.181 61.931 C 286.335 49.971 296.752 44.908 307.299 51.338 C 324.008 61.522 336.255 75.967 344.606 93.723 C 353.123 111.832 356.569 131.146 357.088 150.857 C 357.882 181.114 355.98 211.27 351.967 241.319 C 349.241 261.74 347.84 282.204 352.093 302.779 C 356.426 323.733 367.288 340.825 380.963 356.654 C 390.268 367.425 397.621 379.406 400.259 393.656 C 404.25 415.201 400.178 435.387 389.342 454.305 C 384.551 462.671 379.483 470.886 375.637 479.762 C 365.806 502.454 366.094 525.119 376.618 547.387 C 381.801 558.353 388.397 568.642 393.744 579.537 C 403.708 599.84 405.119 621.108 397.82 642.387 C 391.752 660.081 386.581 677.988 381.811 696.044 C 380.985 699.168 380.251 702.43 377.06 705.084 C 369.183 698.317 366.452 689.378 365.967 679.572 C 365.246 664.988 369.1 650.964 371.69 636.285 Z" style="fill: rgb(6, 87, 33);"/>
    <path opacity="1.000000" stroke="none" d="M 379.622 263.028 C 379.399 241.817 386.252 222.78 393.283 203.801 C 399.91 185.913 406.376 167.955 408.351 148.843 C 410.489 128.154 407.537 108.123 399.116 89.008 C 394.439 78.392 388.647 68.379 382.464 58.582 C 381.847 57.603 381.21 56.636 380.626 55.638 C 375.631 47.11 376.743 38.274 383.35 33.905 C 390.682 29.057 400.557 31.175 406.169 39.324 C 417.259 55.423 426.544 72.483 432.637 91.166 C 443.486 124.429 442.019 157.438 430.917 190.334 C 425.679 205.852 418.947 220.801 413.873 236.391 C 404.203 266.102 408.424 293.258 427.572 318.079 C 437.755 331.281 446.178 345.451 451.338 361.475 C 460.255 389.164 457.549 416.494 449.479 443.761 C 445.593 456.894 440.858 469.761 435.536 482.322 C 421.607 515.184 422.27 546.941 439.996 578.335 C 448.21 592.884 451.748 608.861 450.042 625.672 C 448.57 640.183 443.435 653.712 438.252 667.193 C 434.452 677.076 430.723 686.969 427.546 697.088 C 422.624 712.771 424.145 727.834 430.656 742.666 C 432.587 747.065 434.695 751.457 434.981 756.366 C 435.341 762.556 432.725 764.641 426.9 762.529 C 421.53 760.584 417.333 756.857 413.515 752.679 C 396.832 734.425 395.386 713.151 401.123 690.443 C 404.484 677.14 410.075 664.611 414.632 651.723 C 417.849 642.626 420.703 633.427 421.431 623.781 C 422.361 611.48 418.431 600.224 413.12 589.37 C 403.028 568.743 395.582 547.376 396.148 524.045 C 396.606 505.162 401.817 487.279 408.456 469.718 C 415.394 451.369 422.833 433.19 425.296 413.436 C 428.13 390.709 425.464 369.226 412.547 349.773 C 407.747 342.546 402.601 335.55 397.592 328.464 C 383.818 308.982 378.308 287.209 379.622 263.028 Z" style="fill: rgb(6, 87, 33);"/>
    <path opacity="1.000000" stroke="none" d="M 464.273 779.578 C 470.263 777.248 475.9 775.233 481.335 772.774 C 487.229 770.108 487.41 767.168 481.997 763.302 C 476.21 759.17 469.263 757.978 462.573 756.234 C 458.666 755.216 454.622 754.702 450.753 753.577 C 445.955 752.182 443.686 747.54 444.832 741.902 C 445.854 736.871 449.043 734.749 454.103 735.553 C 469.444 737.987 484.313 742.031 497.385 750.688 C 510.835 759.595 510.411 778.394 496.656 786.79 C 482.104 795.672 465.873 800.406 449.171 802.245 C 410.737 806.478 372.272 807.503 334.327 797.842 C 323.303 795.035 312.434 791.657 303.089 784.738 C 290.548 775.454 290.705 759.777 304.086 751.67 C 319.727 742.196 336.752 736.211 355.131 734.513 C 361.828 733.895 368.492 732.903 375.189 732.298 C 380.127 731.851 383.584 733.884 383.964 739.194 C 384.368 744.852 380.374 746.281 375.829 746.894 C 358.243 749.267 340.791 752.246 324.561 759.864 C 321.391 761.352 316.553 762.39 316.528 766.465 C 316.5 771.018 320.681 773.561 324.651 775.4 C 337.397 781.306 351.101 783.702 364.837 785.318 C 380.508 787.162 396.296 788.53 412.113 787.773 C 429.619 786.937 447.053 785.344 464.273 779.578 Z" style="fill: rgb(21, 59, 175);"/>
    <path fill="#000000" opacity="1.000000" stroke="none" d="M 470.684 622.144 C 468.325 617.244 467.743 612.594 469.073 607.733 C 470.684 601.838 475.402 598.032 481.481 598.707 C 495.417 600.258 509.27 602.391 522.903 605.816 C 530.909 607.827 534.71 613.135 535.779 620.96 C 536.522 626.403 537.419 631.825 538.39 638.197 C 530.68 636.813 523.783 635.529 516.87 634.344 C 505.897 632.464 494.908 630.681 483.937 628.793 C 479.023 627.949 473.869 627.502 470.684 622.144 Z" style=""/>
    <path opacity="1.000000" stroke="none" d="M 544.747 608.418 C 538.91 592.649 526.866 583.84 511.301 578.992 C 508.742 578.195 507.26 579.167 505.824 580.877 C 503.426 583.701 500.798 583.602 497.543 582.206 C 490.815 579.32 487.271 573.647 484.11 567.631 C 482.396 564.363 480.705 561.144 477.879 558.679 C 450.444 534.819 444.41 494.472 469.518 460.647 C 476.397 451.365 483.357 442.035 488.221 431.456 C 503.473 398.323 502.465 366.659 479.871 336.742 C 472.436 326.902 464.063 317.778 457.694 307.117 C 448.776 292.184 444.966 275.934 444.017 258.738 C 441.978 221.732 455.563 190.814 479.35 163.203 C 493.803 146.434 507.897 129.213 517.845 109.144 C 523.705 97.331 525.986 84.731 526.241 71.703 C 526.403 63.411 526.171 55.107 526.31 46.804 C 526.449 38.049 532.251 31.864 540.404 31.459 C 549.623 30.996 555.205 35.814 556.073 45.345 C 559.096 78.605 555.216 110.394 536.004 138.895 C 535.042 140.319 534.324 141.906 533.514 143.435 C 533.433 143.574 533.525 143.794 533.548 144.049 C 535.587 145.728 537.579 144.187 539.513 143.759 C 555.923 140.169 572.171 136.22 586.207 126.168 C 599.55 116.613 608.477 103.886 613.97 88.622 C 616.096 82.716 619.49 78.431 626.107 77.806 C 638.391 76.636 646.093 86.758 641.924 99.242 C 631.3 131.066 609.531 152.479 578.853 165.137 C 566.542 170.221 553.271 172.213 540.555 175.954 C 510.456 184.806 488.117 203.27 479.778 233.91 C 472.668 260.03 476.165 285.447 495.169 307.101 C 508.997 322.87 520.763 340.17 525.789 360.924 C 535.042 399.128 526.669 433.758 503.426 465.095 C 497.902 472.538 492.587 480.096 488.696 488.572 C 480.207 507.049 485.569 524.924 499.651 537.146 C 507.063 543.572 515.32 548.538 525.222 551.152 C 548.349 557.254 560.219 575.028 568.754 595.696 C 570.729 609.889 563.74 611.584 563.729 611.534 C 564.435 612.637 550.623 617.599 544.747 608.418 Z" style="stroke-width: 1; fill: rgb(6, 87, 33);"/>
  </g>
</svg>